# xmcd
#
# Track frame offsets:
#	150
#	22173
#	45314
#	71011
#	91733
#	116237
#	133862
#	152729
#	168145
#	188225
#	194392
#
# Disc length: 2608 seconds
#
# Revision: 0
# Processed by: cddbd v1.5.2PL0 Copyright (c) Steve Scherf et al.
# Submitted via: FairStars CD Ripper 1.90
#
DISCID=930a2e0b
DTITLE=Wayne W. Dyer - Transformation - Next Step for the No-Limit Person 2
DYEAR=2004
DGENRE=Speech
TTITLE0=Chapter01
TTITLE1=Chapter02
TTITLE2=Chapter03
TTITLE3=Chapter04
TTITLE4=Chapter05
TTITLE5=Chapter06
TTITLE6=Chapter07
TTITLE7=Chapter08
TTITLE8=Chapter09
TTITLE9=Chapter10
TTITLE10=Chapter11
EXTD=
EXTT0=
EXTT1=
EXTT2=
EXTT3=
EXTT4=
EXTT5=
EXTT6=
EXTT7=
EXTT8=
EXTT9=
EXTT10=
PLAYORDER=
